<svg width="1117" height="1296" viewBox="0 0 1117 1296" fill="none" xmlns="http://www.w3.org/2000/svg">
<path d="M1114.97 564.315C1099.83 461.538 1004.24 390.488 901.447 405.624L718.477 432.564L829.942 321.111C903.408 247.652 903.408 128.553 829.942 55.094C756.475 -18.3646 637.363 -18.3647 563.897 55.0939L55.0998 563.836C-18.3666 637.295 -18.3666 756.394 55.0998 829.853C95.9629 870.712 150.946 888.841 204.343 884.25C217.457 885.119 230.86 884.623 244.392 882.632L393.347 860.7L279.145 974.889C205.679 1048.35 205.679 1167.45 279.145 1240.91C352.611 1314.36 471.723 1314.36 545.19 1240.91L1053.63 732.523C1099.49 691.811 1124.57 629.511 1114.97 564.315Z" fill="#2F82F9"/>
</svg>
