<svg width="877" height="525" viewBox="0 0 877 525" fill="none" xmlns="http://www.w3.org/2000/svg">
<path d="M537 261H712.683C734.774 261 752.683 243.091 752.683 221V43C752.683 20.9086 770.591 3 792.683 3H877" stroke="url(#paint0_linear_22841_20031)" stroke-width="5"/>
<path d="M537 259H712.683C734.774 259 752.683 276.909 752.683 299V351C752.683 373.091 770.591 391 792.683 391H877" stroke="url(#paint1_linear_22841_20031)" stroke-width="5"/>
<path d="M442 261V525" stroke="url(#paint2_linear_22841_20031)" stroke-width="5"/>
<path d="M340 261H164.317C142.226 261 124.317 243.091 124.317 221V43C124.317 20.9086 106.409 3 84.3172 3H0" stroke="url(#paint3_linear_22841_20031)" stroke-width="5"/>
<path d="M340 261H164.317C142.226 261 124.317 278.909 124.317 301V364C124.317 386.091 106.409 404 84.3172 404H-2.98023e-06" stroke="url(#paint4_linear_22841_20031)" stroke-width="5"/>
<rect x="344" y="166" width="190" height="190" rx="63" fill="white"/>
<path fill-rule="evenodd" clip-rule="evenodd" d="M416.36 246.473C416.239 246.785 415.994 247.033 415.684 247.154C406.713 250.678 400.337 259.464 400.337 269.769C400.337 277.458 403.895 284.315 409.441 288.755C410.878 289.906 414.573 292.122 416.839 290.123C418.35 288.79 417.717 286.205 416.839 284.792C414.226 280.589 409.974 280.188 409.974 269.745C409.974 265.335 411.921 261.361 415.021 258.696C417.473 256.584 420.608 255.28 424.054 255.208C424.094 255.207 424.137 255.188 424.179 255.169C424.202 255.159 424.225 255.149 424.246 255.142C424.308 255.123 424.378 255.148 424.448 255.172C424.498 255.19 424.549 255.207 424.596 255.208C427.403 255.248 430.022 256.113 432.228 257.557C432.805 257.92 433.358 258.357 433.886 258.817C436.458 261.07 438.236 264.269 438.693 267.855C438.945 269.888 439.338 271.535 440.952 273.162C441.817 274.034 443.018 274.591 444.34 274.591H451.069H451.31C453.737 274.446 455.683 272.507 455.852 270.084V269.915V269.745C455.852 268.412 455.299 267.201 454.434 266.328C453.569 265.456 452.367 264.899 451.045 264.899H448.839C448.305 264.899 447.847 264.518 447.72 263.993C447.165 261.711 446.28 259.549 445.133 257.557C444.677 256.757 444.148 255.982 443.595 255.231C442.201 253.341 440.543 251.693 438.669 250.288C437.179 249.173 435.569 248.252 433.862 247.501C431.964 246.677 429.945 246.096 427.83 245.781C430.474 242.679 434.415 240.692 438.789 240.692C443.163 240.692 446.684 242.144 449.748 245.757C451.759 248.31 453.09 251.255 455.373 253.661C457.412 255.811 460.37 256.942 462.557 258.914C465.441 261.507 467.291 265.238 467.387 269.406V269.769V270.133C467.195 277.983 460.802 284.308 452.968 284.308H443.355C435.886 284.308 429.2 278.169 429.2 270.496C429.2 267.467 426.968 265.65 424.37 265.65C421.702 265.65 419.563 267.831 419.563 270.496C419.563 275.209 420.109 278.535 421.659 282.127C425.011 289.893 431.961 293.758 438.174 294H452.968C466.234 294 477 283.145 477 269.769C477 259.584 470.765 250.849 461.915 247.28C461.607 247.156 461.364 246.906 461.246 246.594C457.795 237.476 449.034 231 438.789 231C428.569 231 419.855 237.428 416.36 246.473Z" fill="#2E80F9"/>
<defs>
<linearGradient id="paint0_linear_22841_20031" x1="750" y1="-57" x2="892" y2="-57" gradientUnits="userSpaceOnUse">
<stop stop-color="#CBE2FF"/>
<stop offset="1" stop-color="#DAEAFF" stop-opacity="0"/>
</linearGradient>
<linearGradient id="paint1_linear_22841_20031" x1="751.5" y1="367.5" x2="866.5" y2="367.5" gradientUnits="userSpaceOnUse">
<stop stop-color="#CBE2FF"/>
<stop offset="1" stop-color="#DAEAFF" stop-opacity="0"/>
</linearGradient>
<linearGradient id="paint2_linear_22841_20031" x1="455.5" y1="449.5" x2="455.5" y2="532" gradientUnits="userSpaceOnUse">
<stop stop-color="#CBE2FF"/>
<stop offset="1" stop-color="#DAEAFF" stop-opacity="0"/>
</linearGradient>
<linearGradient id="paint3_linear_22841_20031" x1="94.5" y1="-57" x2="-2.25305e-05" y2="-57" gradientUnits="userSpaceOnUse">
<stop stop-color="#DAEAFF"/>
<stop offset="1" stop-color="#DAEAFF" stop-opacity="0"/>
</linearGradient>
<linearGradient id="paint4_linear_22841_20031" x1="117.5" y1="404" x2="-46" y2="404" gradientUnits="userSpaceOnUse">
<stop stop-color="#CBE2FF"/>
<stop offset="1" stop-color="#DAEAFF" stop-opacity="0"/>
</linearGradient>
</defs>
</svg>
